<svg width="96" height="66" fill="none" xmlns="http://www.w3.org/2000/svg"><path fill-rule="evenodd" clip-rule="evenodd" d="m87.688 11.174 8.198 34.406a2.308 2.308 0 0 1-.358 2.11c-.225.295-.52.529-.855.68a2.205 2.205 0 0 1-1.07.19h-6.52C85.96 58.017 78.02 65.346 68.39 65.346c-9.629 0-17.57-7.329-18.693-16.784h-3.198c-1.124 9.565-9.152 16.981-18.89 16.981-9.753 0-17.792-7.441-18.895-17.03H2.36a2.22 2.22 0 0 1-1.044-.204 2.258 2.258 0 0 1-.835-.667 2.324 2.324 0 0 1-.39-2.061l8.215-34.406C8.876 7.387 12.43.458 21.943.458c.631 0 1.236.254 1.682.708.446.453.697 1.068.697 1.709s-.25 1.256-.697 1.71a2.36 2.36 0 0 1-1.682.707c-7.659 0-8.848 6.011-8.943 6.672L5.436 43.743h3.31c1.213-9.466 9.196-16.777 18.864-16.777 9.662 0 17.641 7.303 18.862 16.76l3.25.016c1.214-9.356 9.11-16.578 18.668-16.578 9.578 0 17.485 7.25 18.675 16.632v-.086h3.478l-7.549-31.746c-.11-.661-1.252-6.672-8.943-6.672a2.36 2.36 0 0 1-1.682-.708 2.437 2.437 0 0 1-.697-1.71c0-.64.25-1.255.697-1.708A2.36 2.36 0 0 1 74.05.458c9.514 0 13.066 6.93 13.637 10.716ZM41.772 48.561a14.845 14.845 0 0 0-.036-4.833c-1.18-6.826-7.055-12.014-14.126-12.014-7.075 0-12.954 5.194-14.128 12.026a14.838 14.838 0 0 0-.04 4.784c1.075 6.952 7.009 12.27 14.168 12.27 7.146 0 13.072-5.299 14.162-12.233Zm40.583 0c.12-.751.182-1.522.182-2.307 0-7.92-6.334-14.342-14.147-14.342-7.813 0-14.146 6.421-14.146 14.342 0 .785.062 1.556.182 2.307 1.088 6.824 6.926 12.036 13.964 12.036 7.039 0 12.876-5.212 13.965-12.036Z" fill="#000"/></svg>